<?xml version="1.0" encoding="utf-8"?>
<!-- Generator: Adobe Illustrator 24.1.1, SVG Export Plug-In . SVG Version: 6.00 Build 0)  -->
<svg version="1.1" xmlns="http://www.w3.org/2000/svg" xmlns:xlink="http://www.w3.org/1999/xlink" x="0px" y="0px"
	 viewBox="0 0 473.14 389.67" style="enable-background:new 0 0 473.14 389.67;" xml:space="preserve">
<style type="text/css">
	.st0{display:none;}
	.st1{display:inline;fill:#FFFFFF;}
	.st2{fill:#CCB6F3;}
	.st3{fill:#E0E0E0;}
	.st4{fill:#FFFFFF;}
	.st5{fill:#E669AD;}
	.st6{fill:#401A4C;}
	.st7{fill:url(#SVGID_1_);}
	.st8{fill:url(#SVGID_2_);}
	.st9{fill:url(#SVGID_3_);}
	.st10{fill:#E2469A;}
	.st11{fill:none;stroke:#4B4BE3;stroke-width:5.6693;stroke-miterlimit:10;}
	.st12{font-family:'Montserrat-ExtraBold';}
	.st13{font-size:79.9714px;}
	.st14{font-family:'Montserrat-Regular';}
	.st15{font-size:13.7098px;}
	.st16{fill:#652687;}
	.st17{font-size:31.7219px;}
	.st18{font-size:5.4382px;}
	.st19{fill:none;stroke:#CCB6F3;stroke-miterlimit:10;}
	.st20{fill:#2ABFD4;}
	.st21{fill:#4B4BE3;}
	.st22{fill:#25ADBF;}
	.st23{fill:#F8CBA3;}
	.st24{fill:#29BFD4;}
	.st25{fill:#8049E2;}
	.st26{fill:#75D7E6;}
	.st27{fill:#138494;}
</style>
<g id="BACKGROUND" class="st0">
	<rect x="-20.14" y="-1.04" class="st1" width="500" height="500"/>
</g>
<g id="OBJECTS">
	<g>
		<path class="st2" d="M27.05,325.97c0,0-35.54-101.76-3.26-117.14c32.28-15.37-6.71-113.27,55.59-130.64s34.92-92.37,140.74-61.67
			c105.82,30.69,112.72-52.49,162.23,29.91c49.5,82.41,26.29,122.6,62.56,133.96c36.27,11.36,17.41,114.85-11.61,145.57
			C233.08,325.97,27.05,325.97,27.05,325.97z"/>
		<path class="st3" d="M443.86,334.37c0,4.82-94.94,13.09-212.06,13.09s-212.06-8.27-212.06-13.09c0-4.82,94.94-8.73,212.06-8.73
			S443.86,329.55,443.86,334.37z"/>
		<path class="st4" d="M186.53,79.89h45.15c0,0,0.71-8.33-8.92-5.54c-9.63,2.79-3.29-9.44-20.07-8.67
			C186.07,66.43,177.36,65.67,186.53,79.89z"/>
		<g>
			<path class="st5" d="M324.83,163.92c35.69,0,47.61-56.2,31.29-47.27c-16.32,8.93,15.98-57-12.05-43.93s8.55-40.88-26.42-40.27
				c-34.97,0.61-4.79,48.05-26.2,43.03c-21.41-5.02,13.37,53.47-7.81,45.55C262.45,113.11,266.9,163.92,324.83,163.92z"/>
			<g>
				<path class="st6" d="M318.7,37.37c0,0,0.06,12.34,0.15,30.85c0.04,18.51,0.08,43.2,0.13,67.88
					c-0.05,24.68-0.09,49.37-0.13,67.88c-0.09,18.51-0.15,30.85-0.15,30.85s-0.06-12.34-0.15-30.85
					c-0.04-18.51-0.08-43.2-0.13-67.88c0.05-24.68,0.09-49.37,0.13-67.88C318.64,49.71,318.7,37.37,318.7,37.37z"/>
			</g>
			<g>
				<path class="st6" d="M344.25,82.76c0,0-0.06,0.54-0.29,1.47c-0.1,0.47-0.28,1.02-0.46,1.66c-0.24,0.62-0.44,1.35-0.79,2.09
					c-0.17,0.37-0.34,0.76-0.52,1.17c-0.21,0.39-0.42,0.79-0.65,1.21c-0.21,0.42-0.47,0.83-0.75,1.24
					c-0.27,0.41-0.54,0.84-0.85,1.25c-0.67,0.78-1.28,1.66-2.09,2.38c-0.39,0.37-0.76,0.77-1.18,1.13l-1.31,1.01l-0.66,0.5
					l-0.72,0.41c-0.48,0.27-0.95,0.54-1.42,0.81c-0.96,0.49-1.98,0.83-2.93,1.23c-0.98,0.31-1.96,0.5-2.87,0.73
					c-0.45,0.13-0.91,0.16-1.35,0.21c-0.44,0.05-0.86,0.09-1.27,0.13c-0.81,0.09-1.56,0.18-2.23,0.13
					c-0.66-0.02-1.24-0.04-1.72-0.05c-0.95-0.04-1.49-0.06-1.49-0.06s0.54-0.02,1.49-0.06c0.47-0.01,1.05-0.03,1.71-0.05
					c0.66,0.02,1.4-0.12,2.2-0.23c0.4-0.06,0.82-0.12,1.25-0.18c0.43-0.06,0.88-0.11,1.32-0.26c0.89-0.26,1.84-0.49,2.8-0.79
					c0.92-0.41,1.91-0.74,2.85-1.23c0.46-0.27,0.92-0.53,1.38-0.8l0.69-0.41l0.64-0.49l1.28-0.96c0.41-0.34,0.78-0.73,1.16-1.09
					c0.8-0.69,1.41-1.55,2.07-2.31c0.31-0.39,0.57-0.82,0.86-1.21c0.28-0.4,0.56-0.78,0.78-1.19c0.23-0.4,0.46-0.79,0.68-1.17
					c0.19-0.39,0.38-0.77,0.56-1.13c0.37-0.72,0.61-1.43,0.89-2.03c0.21-0.62,0.43-1.16,0.55-1.62
					C344.14,83.29,344.25,82.76,344.25,82.76z"/>
			</g>
			<g>
				<path class="st6" d="M317.66,92.11c0,0-1.61,0.27-4.05,0.27c-1.22-0.01-2.65-0.06-4.16-0.27c-1.52-0.2-3.12-0.55-4.68-1.04
					c-1.56-0.51-3.06-1.21-4.35-2.05c-0.65-0.41-1.25-0.87-1.77-1.34c-0.53-0.46-0.99-0.95-1.39-1.42
					c-0.41-0.46-0.72-0.94-0.99-1.35c-0.26-0.42-0.46-0.81-0.63-1.12c-0.28-0.65-0.45-1.02-0.45-1.02s0.2,0.35,0.54,0.97
					c0.2,0.29,0.42,0.66,0.71,1.06c0.3,0.39,0.64,0.82,1.05,1.26c0.41,0.44,0.88,0.89,1.41,1.32c0.53,0.44,1.13,0.84,1.76,1.24
					c1.27,0.79,2.74,1.44,4.27,1.93c1.52,0.51,3.09,0.87,4.58,1.09c1.49,0.23,2.89,0.38,4.1,0.44
					C316.03,92.2,317.66,92.11,317.66,92.11z"/>
			</g>
			<g>
				<path class="st6" d="M328.91,56.97c0,0,0.15,1.52,0.05,3.8c-0.07,1.14-0.16,2.47-0.4,3.88c-0.24,1.41-0.6,2.9-1.1,4.35
					c-0.26,0.72-0.57,1.43-0.92,2.1c-0.36,0.67-0.73,1.32-1.18,1.89c-0.42,0.59-0.92,1.09-1.42,1.53c-0.25,0.22-0.52,0.4-0.77,0.59
					c-0.27,0.16-0.53,0.32-0.77,0.47c-0.52,0.26-1.01,0.46-1.47,0.58c-0.44,0.15-0.86,0.18-1.18,0.25
					c-0.67,0.05-1.04,0.07-1.04,0.07s0.37-0.06,1.03-0.17c0.31-0.1,0.71-0.16,1.13-0.34c0.43-0.15,0.89-0.39,1.37-0.66
					c0.23-0.16,0.47-0.32,0.72-0.49c0.23-0.2,0.47-0.38,0.7-0.6c0.45-0.45,0.9-0.95,1.3-1.52c0.42-0.56,0.77-1.19,1.11-1.84
					c0.32-0.66,0.61-1.35,0.86-2.05c0.52-1.4,0.89-2.86,1.15-4.25c0.26-1.39,0.46-2.69,0.57-3.82
					C328.88,58.49,328.91,56.97,328.91,56.97z"/>
			</g>
			<g>
				<path class="st6" d="M318.7,62.87c0,0-0.21,0.15-0.61,0.32c-0.2,0.1-0.46,0.18-0.75,0.29c-0.3,0.09-0.64,0.19-1.02,0.23
					c-0.38,0.07-0.81,0.06-1.25,0.04c-0.22-0.03-0.45-0.06-0.69-0.09c-0.23-0.06-0.46-0.15-0.69-0.23
					c-0.24-0.06-0.45-0.22-0.67-0.34c-0.22-0.13-0.45-0.25-0.63-0.44l-0.58-0.53c-0.17-0.2-0.32-0.41-0.47-0.62
					c-0.33-0.41-0.52-0.9-0.74-1.35c-0.25-0.45-0.35-0.94-0.5-1.39c-0.07-0.23-0.14-0.45-0.2-0.67c-0.04-0.23-0.07-0.45-0.11-0.66
					c-0.07-0.43-0.13-0.84-0.19-1.21c-0.05-0.38-0.05-0.73-0.06-1.03c-0.01-0.31-0.02-0.57-0.03-0.79
					c-0.01-0.44-0.01-0.69-0.01-0.69s0.04,0.25,0.12,0.68c0.07,0.43,0.17,1.05,0.29,1.79c0.09,0.36,0.18,0.76,0.28,1.17
					c0.05,0.21,0.1,0.42,0.15,0.64c0.07,0.21,0.15,0.42,0.22,0.64c0.16,0.43,0.26,0.9,0.51,1.32c0.22,0.42,0.41,0.88,0.72,1.25
					c0.14,0.19,0.27,0.4,0.42,0.58l0.51,0.49c0.16,0.18,0.36,0.29,0.56,0.41c0.2,0.12,0.37,0.26,0.59,0.32
					c0.21,0.08,0.41,0.16,0.61,0.23c0.21,0.05,0.42,0.09,0.62,0.13c0.41,0.05,0.81,0.09,1.17,0.05c0.73-0.03,1.34-0.18,1.76-0.3
					C318.47,62.97,318.7,62.87,318.7,62.87z"/>
			</g>
			<g>
				<path class="st6" d="M354.09,126.08c0,0-0.2,0.68-0.68,1.81c-0.23,0.57-0.55,1.25-0.93,2.02c-0.4,0.76-0.83,1.63-1.42,2.51
					c-0.53,0.92-1.22,1.84-1.93,2.82c-0.35,0.5-0.78,0.95-1.18,1.45c-0.41,0.48-0.81,1-1.3,1.46c-0.47,0.47-0.95,0.94-1.43,1.43
					c-0.47,0.49-1.04,0.89-1.57,1.35c-0.55,0.43-1.05,0.93-1.65,1.31l-1.76,1.19c-0.3,0.19-0.58,0.4-0.89,0.58l-0.94,0.49
					c-0.62,0.33-1.25,0.65-1.86,0.98c-1.26,0.6-2.56,1.04-3.79,1.54c-1.26,0.42-2.52,0.69-3.68,1.01c-0.29,0.07-0.58,0.16-0.87,0.22
					c-0.29,0.04-0.58,0.08-0.86,0.13c-0.56,0.08-1.11,0.16-1.63,0.24c-1.05,0.14-2,0.33-2.87,0.3c-0.86,0.02-1.61,0.04-2.22,0.06
					c-1.23,0.03-1.93,0.05-1.93,0.05s0.7-0.05,1.93-0.15c0.61-0.05,1.36-0.1,2.21-0.17c0.86-0.02,1.8-0.25,2.84-0.41
					c0.52-0.09,1.06-0.18,1.61-0.28c0.28-0.05,0.56-0.1,0.85-0.15c0.29-0.06,0.57-0.16,0.86-0.24c1.15-0.35,2.38-0.66,3.62-1.07
					c1.2-0.51,2.49-0.95,3.72-1.55c0.61-0.32,1.21-0.65,1.83-0.98l0.92-0.49c0.3-0.17,0.58-0.39,0.87-0.58l1.74-1.16
					c0.59-0.37,1.09-0.86,1.63-1.28c0.52-0.45,1.09-0.84,1.56-1.32c0.48-0.47,0.96-0.94,1.43-1.39c0.49-0.44,0.88-0.96,1.3-1.42
					c0.41-0.48,0.85-0.92,1.2-1.4c0.73-0.96,1.43-1.85,1.99-2.74c0.6-0.87,1.07-1.71,1.51-2.44c0.41-0.75,0.76-1.41,1.02-1.96
					C353.86,126.75,354.09,126.08,354.09,126.08z"/>
			</g>
			<g>
				<path class="st6" d="M318.7,140c0,0-2.2,0.37-5.54,0.39c-1.67-0.01-3.62-0.08-5.69-0.34c-2.07-0.27-4.26-0.72-6.4-1.37
					c-1.06-0.34-2.11-0.73-3.12-1.18c-1-0.45-1.98-0.93-2.87-1.48c-0.91-0.52-1.74-1.11-2.49-1.72c-0.38-0.29-0.73-0.6-1.06-0.91
					c-0.34-0.3-0.66-0.6-0.94-0.91c-0.6-0.58-1.07-1.2-1.49-1.73c-0.4-0.55-0.73-1.04-1-1.44c-0.49-0.84-0.77-1.32-0.77-1.32
					s0.31,0.46,0.85,1.27c0.29,0.38,0.65,0.85,1.08,1.37c0.46,0.49,0.95,1.07,1.56,1.63c0.29,0.29,0.61,0.58,0.96,0.86
					c0.34,0.29,0.69,0.58,1.08,0.85c0.38,0.28,0.77,0.57,1.19,0.83c0.42,0.27,0.84,0.55,1.29,0.79c0.88,0.53,1.85,0.99,2.84,1.42
					c0.99,0.43,2.03,0.8,3.08,1.12c2.1,0.66,4.26,1.12,6.3,1.42c2.05,0.29,3.97,0.46,5.63,0.51c1.66,0.05,3.04,0.06,4.01,0.02
					C318.15,140.05,318.7,140,318.7,140z"/>
			</g>
		</g>
		<g>
			<linearGradient id="SVGID_1_" gradientUnits="userSpaceOnUse" x1="317.6551" y1="140.4768" x2="410.6161" y2="140.4768">
				<stop  offset="0" style="stop-color:#E2469A"/>
				<stop  offset="1" style="stop-color:#E669AD"/>
			</linearGradient>
			<path class="st7" d="M356.83,206.22c-36.34,0-48.47-56.2-31.86-47.27c16.62,8.93-16.27-57,12.27-43.93s-8.71-40.88,26.9-40.27
				s4.88,48.05,26.68,43.03c21.8-5.02-13.61,53.47,7.95,45.55C420.34,155.41,415.82,206.22,356.83,206.22z"/>
			<g>
				<path class="st6" d="M363.07,79.67c0,0,0.06,12.34,0.15,30.85c0.04,18.51,0.08,43.2,0.13,67.88
					c-0.05,24.68-0.09,49.37-0.13,67.88c-0.09,18.51-0.15,30.85-0.15,30.85s-0.06-12.34-0.15-30.85
					c-0.04-18.51-0.08-43.2-0.13-67.88c0.05-24.68,0.1-49.37,0.13-67.88C363.01,92.01,363.07,79.67,363.07,79.67z"/>
			</g>
			<g>
				<path class="st6" d="M337.06,125.06c0,0,0.1,0.54,0.4,1.46c0.13,0.46,0.35,1,0.57,1.63c0.28,0.61,0.53,1.32,0.91,2.04
					c0.19,0.37,0.36,0.75,0.57,1.14c0.22,0.38,0.46,0.77,0.7,1.17c0.22,0.41,0.52,0.79,0.8,1.19c0.3,0.39,0.55,0.83,0.88,1.21
					c0.67,0.77,1.31,1.61,2.12,2.31c0.4,0.36,0.76,0.76,1.19,1.08l1.31,0.96c0.22,0.16,0.43,0.33,0.65,0.48l0.7,0.4
					c0.47,0.27,0.94,0.54,1.4,0.8c0.96,0.47,1.95,0.82,2.89,1.22c0.98,0.29,1.93,0.52,2.84,0.78c0.45,0.15,0.9,0.18,1.34,0.25
					c0.44,0.06,0.86,0.12,1.27,0.18c0.81,0.11,1.56,0.24,2.22,0.23c0.67,0.02,1.25,0.04,1.73,0.05c0.96,0.03,1.51,0.05,1.51,0.05
					s-0.55,0.02-1.51,0.05c-0.48,0.02-1.07,0.03-1.74,0.05c-0.67,0.06-1.43-0.03-2.25-0.12c-0.41-0.04-0.84-0.09-1.29-0.13
					c-0.44-0.05-0.91-0.07-1.37-0.2c-0.92-0.23-1.91-0.43-2.91-0.72c-0.96-0.4-1.99-0.74-2.97-1.21c-0.48-0.27-0.96-0.53-1.44-0.8
					l-0.73-0.41c-0.23-0.15-0.45-0.32-0.68-0.49l-1.33-1.01c-0.44-0.34-0.81-0.75-1.21-1.12c-0.83-0.72-1.47-1.59-2.14-2.38
					c-0.33-0.4-0.6-0.84-0.88-1.25c-0.28-0.42-0.56-0.82-0.77-1.24c-0.23-0.42-0.45-0.82-0.66-1.22c-0.2-0.4-0.37-0.8-0.54-1.17
					c-0.37-0.74-0.58-1.48-0.82-2.11c-0.19-0.65-0.37-1.2-0.47-1.67C337.12,125.6,337.06,125.06,337.06,125.06z"/>
			</g>
			<g>
				<path class="st6" d="M364.14,134.41c0,0,1.65,0.09,4.1-0.05c1.23-0.05,2.65-0.21,4.16-0.44c1.51-0.22,3.11-0.58,4.65-1.08
					c1.55-0.48,3.05-1.12,4.35-1.91c0.65-0.4,1.26-0.8,1.8-1.24c0.55-0.43,1.03-0.88,1.45-1.32c0.42-0.44,0.77-0.87,1.08-1.27
					c0.3-0.4,0.53-0.77,0.73-1.06c0.35-0.63,0.56-0.98,0.56-0.98s-0.17,0.38-0.46,1.04c-0.18,0.31-0.38,0.7-0.65,1.13
					c-0.28,0.42-0.6,0.89-1.02,1.36c-0.41,0.47-0.88,0.96-1.42,1.42c-0.53,0.48-1.14,0.93-1.81,1.34c-1.32,0.84-2.85,1.52-4.43,2.03
					c-1.59,0.49-3.22,0.83-4.75,1.03c-1.54,0.21-2.99,0.26-4.22,0.27C365.77,134.68,364.14,134.41,364.14,134.41z"/>
			</g>
			<g>
				<path class="st6" d="M352.68,99.27c0,0,0.03,1.53,0.27,3.79c0.11,1.13,0.32,2.44,0.58,3.84c0.27,1.39,0.65,2.86,1.18,4.26
					c0.25,0.71,0.55,1.4,0.88,2.05c0.34,0.65,0.7,1.28,1.13,1.83c0.41,0.56,0.87,1.06,1.33,1.51c0.24,0.21,0.48,0.4,0.72,0.6
					c0.25,0.17,0.5,0.33,0.73,0.48c0.49,0.26,0.95,0.49,1.39,0.64c0.42,0.18,0.82,0.24,1.14,0.34c0.66,0.11,1.03,0.17,1.03,0.17
					s-0.38-0.01-1.05-0.06c-0.33-0.07-0.74-0.1-1.19-0.24c-0.22-0.07-0.47-0.13-0.72-0.22c-0.24-0.11-0.5-0.22-0.76-0.34
					c-0.25-0.15-0.51-0.3-0.78-0.46c-0.25-0.19-0.52-0.38-0.78-0.58c-0.5-0.44-1.02-0.93-1.45-1.52c-0.46-0.57-0.84-1.22-1.21-1.89
					c-0.36-0.67-0.68-1.38-0.95-2.1c-0.52-1.45-0.89-2.95-1.14-4.37c-0.25-1.42-0.35-2.76-0.42-3.9
					C352.52,100.8,352.68,99.27,352.68,99.27z"/>
			</g>
			<g>
				<path class="st6" d="M363.07,105.17c0,0,0.23,0.1,0.66,0.22c0.42,0.12,1.04,0.26,1.78,0.3c0.37,0.04,0.77,0,1.18-0.04
					c0.2-0.04,0.41-0.09,0.63-0.13c0.21-0.06,0.41-0.15,0.62-0.23c0.22-0.06,0.41-0.19,0.6-0.32c0.19-0.13,0.41-0.22,0.57-0.4
					l0.52-0.49c0.17-0.17,0.29-0.39,0.44-0.58c0.32-0.37,0.53-0.82,0.75-1.25c0.25-0.42,0.37-0.89,0.53-1.32
					c0.08-0.22,0.15-0.44,0.23-0.65c0.05-0.22,0.11-0.43,0.16-0.64c0.1-0.42,0.2-0.81,0.29-1.18c0.08-0.37,0.11-0.71,0.17-1.01
					c0.05-0.3,0.09-0.57,0.13-0.79c0.08-0.44,0.12-0.69,0.12-0.69s-0.01,0.25-0.01,0.7c-0.01,0.22-0.02,0.49-0.03,0.8
					c-0.02,0.31-0.01,0.66-0.07,1.04c-0.06,0.38-0.13,0.79-0.2,1.22c-0.04,0.22-0.07,0.44-0.11,0.67c-0.07,0.22-0.14,0.45-0.21,0.68
					c-0.15,0.46-0.27,0.95-0.52,1.4c-0.22,0.46-0.43,0.94-0.77,1.35c-0.17,0.2-0.3,0.43-0.49,0.62l-0.59,0.53
					c-0.18,0.19-0.43,0.29-0.64,0.43c-0.22,0.13-0.44,0.27-0.68,0.33c-0.24,0.07-0.46,0.18-0.7,0.22c-0.24,0.03-0.47,0.06-0.69,0.09
					c-0.45,0.01-0.88,0.02-1.26-0.05c-0.39-0.04-0.73-0.14-1.03-0.23c-0.3-0.1-0.55-0.19-0.76-0.29
					C363.28,105.31,363.07,105.17,363.07,105.17z"/>
			</g>
			<g>
				<path class="st6" d="M327.03,168.38c0,0,0.24,0.67,0.78,1.79c0.27,0.56,0.63,1.23,1.05,1.98c0.45,0.74,0.94,1.58,1.55,2.45
					c0.57,0.9,1.3,1.79,2.04,2.76c0.37,0.48,0.82,0.92,1.23,1.4c0.43,0.47,0.84,0.98,1.34,1.42c0.48,0.46,0.96,0.92,1.46,1.4
					c0.49,0.47,1.06,0.87,1.59,1.31c1.05,0.92,2.26,1.65,3.44,2.42c0.57,0.42,1.2,0.73,1.83,1.06c0.62,0.33,1.24,0.65,1.86,0.98
					c1.26,0.58,2.56,1.03,3.78,1.54c1.26,0.4,2.51,0.72,3.67,1.06c0.58,0.19,1.16,0.29,1.73,0.38c0.56,0.1,1.11,0.19,1.63,0.28
					c1.05,0.17,2,0.39,2.87,0.41c0.86,0.06,1.62,0.12,2.24,0.17c1.24,0.09,1.95,0.14,1.95,0.14s-0.71-0.02-1.96-0.05
					c-0.62-0.02-1.38-0.03-2.25-0.06c-0.87,0.02-1.84-0.15-2.9-0.3c-0.53-0.08-1.08-0.15-1.65-0.24c-0.57-0.08-1.17-0.16-1.76-0.33
					c-1.19-0.32-2.46-0.59-3.74-1c-1.25-0.5-2.56-0.95-3.85-1.53c-0.63-0.32-1.26-0.65-1.89-0.98c-0.64-0.32-1.28-0.64-1.87-1.06
					c-1.19-0.8-2.41-1.56-3.47-2.49c-0.54-0.46-1.11-0.87-1.6-1.35c-0.49-0.48-0.98-0.96-1.46-1.43c-0.5-0.45-0.92-0.97-1.33-1.46
					c-0.41-0.5-0.85-0.96-1.21-1.45c-0.72-1-1.43-1.91-1.98-2.84c-0.6-0.89-1.05-1.77-1.46-2.53c-0.39-0.78-0.72-1.46-0.96-2.04
					C327.24,169.07,327.03,168.38,327.03,168.38z"/>
			</g>
			<g>
				<path class="st6" d="M363.07,182.3c0,0,0.56,0.05,1.54,0.09c0.98,0.04,2.39,0.03,4.07-0.02c1.68-0.05,3.64-0.23,5.71-0.51
					c1.04-0.15,2.11-0.33,3.18-0.57c1.08-0.22,2.15-0.52,3.22-0.84c1.07-0.32,2.12-0.69,3.13-1.12c1.01-0.43,1.99-0.89,2.89-1.41
					c0.46-0.25,0.9-0.52,1.32-0.79c0.43-0.26,0.83-0.54,1.22-0.83c0.4-0.27,0.76-0.56,1.1-0.86c0.35-0.28,0.68-0.56,0.98-0.86
					c0.62-0.56,1.13-1.14,1.6-1.64c0.44-0.52,0.81-0.99,1.11-1.38c0.55-0.81,0.87-1.28,0.87-1.28s-0.29,0.48-0.79,1.33
					c-0.28,0.4-0.62,0.9-1.03,1.45c-0.44,0.53-0.92,1.15-1.53,1.73c-0.29,0.31-0.62,0.61-0.96,0.91c-0.34,0.31-0.7,0.62-1.09,0.91
					c-0.38,0.3-0.78,0.61-1.21,0.88c-0.42,0.3-0.86,0.57-1.33,0.83c-0.91,0.54-1.91,1.02-2.93,1.47c-1.02,0.44-2.09,0.83-3.17,1.17
					c-1.09,0.32-2.18,0.61-3.28,0.82c-1.09,0.23-2.17,0.39-3.22,0.54c-2.1,0.26-4.08,0.33-5.77,0.34c-1.69,0-3.1-0.12-4.08-0.2
					C363.63,182.39,363.07,182.3,363.07,182.3z"/>
			</g>
		</g>
		<linearGradient id="SVGID_2_" gradientUnits="userSpaceOnUse" x1="457.4062" y1="305.9507" x2="327.9291" y2="305.9507">
			<stop  offset="0" style="stop-color:#2ABFD4"/>
			<stop  offset="0.3663" style="stop-color:#14AABC"/>
			<stop  offset="0.7283" style="stop-color:#059CAB"/>
			<stop  offset="1" style="stop-color:#0097A5"/>
		</linearGradient>
		<path class="st8" d="M330.45,331.89h125.94c0,0,7.04-21.76-15.84-14.57c-11.19,3.52,8.97-30.65-18.19-24.19
			c-18.89,4.49-25.52-13.4-39.31-13.12c-36.24,0.74-11.73,29.44-33.83,26.82C331.29,304.7,323.5,319.07,330.45,331.89z"/>
		<linearGradient id="SVGID_3_" gradientUnits="userSpaceOnUse" x1="9.1034" y1="305.9507" x2="138.5805" y2="305.9507">
			<stop  offset="0" style="stop-color:#2ABFD4"/>
			<stop  offset="0.3663" style="stop-color:#14AABC"/>
			<stop  offset="0.7283" style="stop-color:#059CAB"/>
			<stop  offset="1" style="stop-color:#0097A5"/>
		</linearGradient>
		<path class="st9" d="M11.62,331.89h125.94c0,0,7.04-21.76-15.84-14.57c-11.19,3.52,8.97-30.65-18.19-24.19
			c-18.89,4.49-25.52-13.4-39.31-13.12c-36.24,0.74-11.73,29.44-33.83,26.82C12.46,304.7,4.68,319.07,11.62,331.89z"/>
		<g>
			<path class="st10" d="M364.09,334.1c-7.93-20.87-2.5-38.82,7.93-30.89c10.43,7.93,0-13.77,0-24.21c0-10.43,7.1-10.02,11.69-4.17
				s7.1-7.51,11.27-18.37c4.17-10.85,19.62-10.02,18.78,2.92c-0.83,12.94-12.52,15.86-5.43,19.2s12.52,11.27-1.67,18.78
				c-14.19,7.51-6.68,15.03-1.67,15.86s11.69,10.02-5.43,20.87C384.13,334.1,364.09,334.1,364.09,334.1z"/>
			<g>
				<path class="st6" d="M402.91,261.06c0,0-0.54,1.07-1.4,2.97c-0.86,1.91-2.03,4.65-3.37,7.98c-0.65,1.67-1.37,3.47-2.08,5.4
					c-0.71,1.93-1.45,3.96-2.17,6.08c-0.75,2.11-1.45,4.31-2.17,6.55c-0.74,2.23-1.37,4.54-2.07,6.82c-0.65,2.3-1.29,4.6-1.93,6.86
					c-0.58,2.28-1.14,4.52-1.69,6.69c-0.5,2.18-0.99,4.29-1.45,6.29c-0.49,1.99-0.81,3.91-1.19,5.66c-0.34,1.76-0.71,3.36-0.95,4.8
					c-0.26,1.43-0.48,2.68-0.67,3.71c-0.37,2.06-0.58,3.24-0.58,3.24s0.18-1.18,0.49-3.25c0.15-1.03,0.34-2.29,0.56-3.73
					c0.19-1.45,0.52-3.06,0.84-4.82c0.34-1.76,0.64-3.68,1.09-5.69c0.43-2.01,0.87-4.13,1.37-6.32c0.54-2.18,1.09-4.43,1.66-6.71
					c0.62-2.27,1.26-4.58,1.89-6.88c0.71-2.28,1.36-4.59,2.11-6.82c0.74-2.24,1.45-4.44,2.21-6.55c0.73-2.12,1.51-4.14,2.25-6.06
					c0.74-1.92,1.48-3.71,2.17-5.37c1.39-3.31,2.67-6.01,3.58-7.9C402.35,262.11,402.91,261.06,402.91,261.06z"/>
			</g>
			<g>
				<path class="st6" d="M379.33,280.47c0,0,0.02,0.14,0.05,0.39c0.03,0.26,0.09,0.63,0.17,1.1c0.18,0.94,0.52,2.27,1.15,3.76
					c0.62,1.5,1.58,3.17,2.98,4.62c0.69,0.73,1.5,1.39,2.4,1.94c0.9,0.55,1.9,0.95,2.93,1.22c1.03,0.28,2.1,0.42,3.16,0.41
					c1.06,0.02,2.1-0.11,3.09-0.3c0.99-0.2,1.94-0.45,2.83-0.74c0.89-0.28,1.71-0.62,2.46-0.93c0.73-0.36,1.43-0.63,2.02-0.95
					c0.59-0.31,1.12-0.55,1.53-0.8c0.83-0.47,1.31-0.74,1.31-0.74s-0.46,0.3-1.26,0.82c-0.4,0.27-0.91,0.55-1.48,0.9
					c-0.57,0.36-1.25,0.68-1.98,1.06c-1.49,0.69-3.29,1.44-5.33,1.86c-1.02,0.2-2.09,0.35-3.19,0.35c-1.1,0.02-2.22-0.11-3.3-0.39
					c-1.08-0.29-2.13-0.73-3.06-1.31c-0.94-0.58-1.77-1.29-2.48-2.06c-0.72-0.76-1.3-1.59-1.77-2.42c-0.47-0.83-0.86-1.64-1.14-2.42
					c-0.6-1.55-0.82-2.92-0.95-3.87c-0.06-0.48-0.09-0.85-0.11-1.11C379.34,280.6,379.33,280.47,379.33,280.47z"/>
			</g>
			<g>
				<path class="st6" d="M369.1,312.61c0,0,0.2,0.62,0.54,1.71c0.15,0.55,0.44,1.18,0.75,1.9c0.28,0.74,0.73,1.51,1.21,2.35
					c0.21,0.44,0.52,0.84,0.83,1.25c0.32,0.41,0.59,0.89,0.99,1.27c0.38,0.4,0.77,0.81,1.18,1.22c0.45,0.36,0.91,0.73,1.38,1.11
					c0.46,0.39,1.03,0.64,1.55,0.97c0.51,0.35,1.11,0.55,1.69,0.79l0.88,0.36l0.92,0.24c0.62,0.15,1.23,0.36,1.87,0.4
					c0.64,0.07,1.27,0.19,1.91,0.23c0.64,0.01,1.28,0.02,1.91,0.03c0.63,0.04,1.26-0.09,1.88-0.12c0.62-0.07,1.24-0.07,1.83-0.21
					c1.18-0.25,2.35-0.37,3.42-0.71c1.07-0.3,2.11-0.51,3.01-0.87c0.92-0.31,1.77-0.6,2.52-0.86c0.73-0.3,1.37-0.56,1.9-0.78
					c1.05-0.43,1.66-0.68,1.66-0.68s-0.59,0.28-1.62,0.77c-0.52,0.24-1.14,0.54-1.86,0.88c-0.74,0.29-1.58,0.61-2.49,0.97
					c-0.9,0.38-1.94,0.63-3.01,0.97c-1.07,0.37-2.25,0.54-3.45,0.79c-0.6,0.15-1.23,0.15-1.86,0.24c-0.63,0.04-1.27,0.18-1.91,0.14
					c-0.65,0-1.3-0.01-1.96-0.01c-0.65-0.04-1.31-0.15-1.96-0.22c-0.66-0.05-1.29-0.27-1.93-0.43l-0.95-0.26l-0.9-0.38
					c-0.6-0.26-1.21-0.47-1.74-0.84c-0.53-0.35-1.12-0.61-1.59-1.02c-0.48-0.39-0.96-0.77-1.41-1.16c-0.4-0.44-0.79-0.87-1.17-1.29
					c-0.4-0.4-0.66-0.9-0.97-1.33c-0.3-0.44-0.6-0.85-0.81-1.3c-0.23-0.44-0.44-0.86-0.65-1.25c-0.21-0.39-0.32-0.81-0.47-1.18
					c-0.28-0.75-0.53-1.39-0.65-1.95C369.27,313.24,369.1,312.61,369.1,312.61z"/>
			</g>
		</g>
		<g>
			<path class="st10" d="M98.95,331.69c6.51-17.14,2.06-31.88-6.51-25.37c-8.57,6.51,0-11.31,0-19.88c0-8.57-5.83-8.23-9.6-3.43
				c-3.77,4.8-5.83-6.17-9.26-15.08c-3.43-8.91-16.11-8.23-15.43,2.4c0.69,10.63,10.28,13.03,4.46,15.77
				c-5.83,2.74-10.28,9.26,1.37,15.43c11.65,6.17,5.48,12.34,1.37,13.03c-4.11,0.69-9.6,8.23,4.46,17.14
				C82.5,331.69,98.95,331.69,98.95,331.69z"/>
			<g>
				<path class="st6" d="M67.07,271.7c0,0,0.47,0.86,1.23,2.4c0.75,1.55,1.81,3.76,2.96,6.48c0.56,1.36,1.18,2.84,1.79,4.41
					c0.61,1.58,1.26,3.23,1.85,4.98c0.63,1.73,1.22,3.54,1.82,5.38c0.62,1.83,1.15,3.73,1.74,5.6c0.52,1.9,1.04,3.79,1.55,5.66
					c0.46,1.88,0.92,3.73,1.36,5.52c0.42,1.79,0.77,3.54,1.12,5.19c0.37,1.65,0.61,3.23,0.89,4.67c0.26,1.45,0.53,2.77,0.68,3.96
					c0.17,1.18,0.32,2.22,0.45,3.07c0.25,1.7,0.39,2.67,0.39,2.67s-0.18-0.97-0.48-2.66c-0.15-0.84-0.34-1.87-0.56-3.05
					c-0.2-1.18-0.51-2.49-0.79-3.94c-0.31-1.44-0.58-3.01-0.98-4.65c-0.38-1.64-0.78-3.37-1.19-5.16c-0.45-1.78-0.92-3.62-1.39-5.49
					c-0.52-1.86-1.05-3.75-1.58-5.63c-0.57-1.88-1.09-3.77-1.7-5.6c-0.59-1.84-1.16-3.65-1.78-5.38c-0.59-1.74-1.2-3.41-1.77-4.99
					c-0.58-1.58-1.16-3.07-1.7-4.44c-1.09-2.73-2.04-4.99-2.75-6.56C67.51,272.58,67.07,271.7,67.07,271.7z"/>
			</g>
			<g>
				<path class="st6" d="M86.44,287.64c0,0-0.03,0.45-0.09,1.23c-0.05,0.39-0.15,0.86-0.24,1.41c-0.14,0.53-0.28,1.14-0.53,1.78
					c-0.13,0.32-0.26,0.64-0.4,0.98c-0.15,0.34-0.35,0.66-0.53,1.01c-0.17,0.35-0.41,0.68-0.66,1.01c-0.24,0.34-0.48,0.69-0.8,0.98
					c-0.31,0.3-0.58,0.65-0.95,0.91c-0.36,0.26-0.71,0.55-1.09,0.8c-0.4,0.21-0.81,0.42-1.22,0.63c-0.42,0.19-0.87,0.29-1.31,0.44
					c-0.44,0.17-0.9,0.17-1.36,0.24c-0.46,0.06-0.91,0.12-1.36,0.08c-0.45-0.02-0.9-0.04-1.34-0.06c-0.44-0.06-0.86-0.16-1.28-0.24
					c-0.85-0.11-1.62-0.43-2.36-0.69c-0.75-0.23-1.4-0.57-2.01-0.86c-0.6-0.31-1.19-0.54-1.64-0.85c-0.47-0.29-0.87-0.55-1.2-0.76
					c-0.66-0.43-1.04-0.67-1.04-0.67s0.4,0.21,1.1,0.57c0.35,0.18,0.77,0.41,1.25,0.67c0.47,0.28,1.06,0.47,1.67,0.75
					c0.61,0.27,1.27,0.57,2.02,0.76c0.73,0.22,1.49,0.49,2.32,0.59c0.41,0.07,0.82,0.16,1.24,0.21c0.42,0.01,0.85,0.02,1.29,0.04
					c0.43,0.04,0.86-0.03,1.3-0.09c0.43-0.07,0.87-0.08,1.28-0.24c0.41-0.14,0.84-0.23,1.24-0.4c0.39-0.19,0.78-0.39,1.16-0.58
					c0.36-0.24,0.69-0.5,1.04-0.74c0.35-0.24,0.61-0.58,0.91-0.85c0.31-0.27,0.54-0.61,0.79-0.92c0.25-0.31,0.49-0.61,0.67-0.95
					c0.19-0.33,0.4-0.63,0.56-0.95c0.15-0.33,0.3-0.64,0.44-0.94c0.26-0.61,0.45-1.2,0.62-1.71c0.13-0.53,0.26-0.98,0.34-1.37
					C86.37,288.09,86.44,287.64,86.44,287.64z"/>
			</g>
			<g>
				<path class="st6" d="M94.84,314.04c0,0-0.13,0.52-0.35,1.43c-0.09,0.46-0.3,0.99-0.53,1.61c-0.2,0.63-0.54,1.29-0.92,2.01
					c-0.17,0.37-0.41,0.72-0.66,1.07c-0.26,0.35-0.47,0.76-0.8,1.09c-0.31,0.35-0.63,0.7-0.96,1.07c-0.37,0.32-0.76,0.63-1.16,0.96
					c-0.83,0.58-1.73,1.16-2.74,1.53l-0.75,0.31l-0.78,0.21c-0.53,0.13-1.04,0.31-1.59,0.35c-0.54,0.06-1.08,0.15-1.62,0.18
					c-0.54,0-1.08,0-1.61,0.01c-0.53,0.03-1.06-0.08-1.58-0.12c-0.52-0.07-1.04-0.07-1.53-0.2c-0.99-0.21-1.96-0.35-2.83-0.66
					c-0.88-0.28-1.73-0.49-2.47-0.8c-0.75-0.29-1.43-0.56-2.04-0.8c-0.59-0.28-1.1-0.53-1.53-0.73c-0.84-0.41-1.32-0.64-1.32-0.64
					s0.5,0.2,1.37,0.54c0.43,0.18,0.96,0.39,1.56,0.63c0.62,0.21,1.31,0.44,2.07,0.7c0.75,0.29,1.6,0.46,2.48,0.7
					c0.87,0.27,1.84,0.37,2.81,0.57c0.48,0.11,0.99,0.11,1.5,0.17c0.51,0.03,1.02,0.13,1.54,0.1c0.52-0.01,1.04-0.02,1.57-0.03
					c0.52-0.04,1.04-0.13,1.56-0.19c0.53-0.03,1.03-0.2,1.53-0.32l0.76-0.19l0.72-0.29c0.97-0.35,1.84-0.89,2.65-1.44
					c0.38-0.31,0.76-0.61,1.13-0.9c0.33-0.34,0.65-0.67,0.97-1c0.33-0.31,0.55-0.7,0.81-1.04c0.26-0.34,0.51-0.67,0.68-1.03
					c0.39-0.69,0.77-1.32,0.99-1.92c0.26-0.59,0.5-1.11,0.62-1.56C94.67,314.55,94.84,314.04,94.84,314.04z"/>
			</g>
		</g>
		<path class="st3" d="M381.51,375.67c0,0,58.14,4.63,34.41-25.5C417.33,361.15,402.27,376.17,381.51,375.67z"/>
		<path class="st3" d="M328.68,378.09c-49.19-3.4-50.53-17.83-40.67-26.82C290.64,359.29,290.81,369.88,328.68,378.09z"/>
		<path class="st3" d="M357.47,354.74c-37.78-2.1-53.72,11.73-14.59,12.21C382.02,367.44,433.52,358.97,357.47,354.74z"/>
		<path class="st3" d="M353.94,340.43c0,0,53.78-8.22,61.97,10.84C411.04,336.49,387.77,328.91,353.94,340.43z"/>
		<path class="st3" d="M113.57,330.08c0,0-56.58-1.11-72.06,19.2c-15.48,20.31,20.8,15.15,54.74,12.16
			c9.89-7.75,75.03-1.8,58.59,7.05c-19.11,10.29-52.16,3.98-57.33-3.02c-63.67,4.25-74.86-5.2-65.92-16.74
			C40.54,337.19,80.67,323.66,113.57,330.08z"/>
		<path class="st11" d="M63.86,363.17c-52.23,1.27-38.21-42.08,58.51-35.37"/>
		<path class="st11" d="M53.54,292.89"/>
		<path class="st11" d="M103.88,214.27"/>
		<path class="st11" d="M378.09,211.43c39.95,15.86,59.24,31.83,58.19,62.43c-0.97,28.19-19.81,69.62-111.9,67.57
			c-57.07-1.27-43.43,36.66,31.66,36.66c76.7,0,103.31-59.52-65.18-55.82"/>
		<g>
			<path class="st6" d="M361.12,340.92H99.06c-10.8,0-19.55-8.75-19.55-19.55V161.48c0-10.8,8.75-19.55,19.55-19.55h262.05
				c10.8,0,19.55,8.75,19.55,19.55v159.89C380.67,332.16,371.91,340.92,361.12,340.92z"/>
			<rect x="99.5" y="150.62" class="st4" width="261.18" height="181.61"/>
			<text transform="matrix(1 0 0 1 146.7204 261.93)"><tspan x="0" y="0" class="st10 st12 st13">404</tspan><tspan x="18.04" y="16.45" class="st10 st14 st15">PAGE NOT FOUND</tspan></text>
			<path class="st16" d="M93.2,241.42c0,2.7-2.19,4.89-4.89,4.89c-2.7,0-4.89-2.19-4.89-4.89c0-2.7,2.19-4.89,4.89-4.89
				C91.01,236.53,93.2,238.72,93.2,241.42z"/>
			<path class="st16" d="M370.46,262.71L370.46,262.71c-2.75,0-5-2.25-5-5v-32.59c0-2.75,2.25-5,5-5l0,0c2.75,0,5,2.25,5,5v32.59
				C375.45,260.46,373.21,262.71,370.46,262.71z"/>
		</g>
		<g>
			<path class="st4" d="M135.88,116.31h-25.33c-2.09,0-3.78,1.69-3.78,3.78v7.19H50.02v66.26h89.64v-73.45
				C139.66,118.01,137.96,116.31,135.88,116.31z"/>
			<rect x="52.76" y="130" class="st10" width="84.16" height="60.75"/>
			<text transform="matrix(1 0 0 1 61.7683 169.6014)"><tspan x="0" y="0" class="st4 st12 st17">404</tspan><tspan x="7.16" y="6.53" class="st4 st14 st18">PAGE NOT FOUND</tspan></text>
			<rect x="109.33" y="125.64" class="st2" width="7.34" height="1.4"/>
			<rect x="118.97" y="119.7" class="st2" width="7.34" height="7.34"/>
			<line class="st19" x1="128.61" y1="127.05" x2="135.95" y2="119.7"/>
			<line class="st19" x1="128.61" y1="119.7" x2="135.95" y2="127.05"/>
		</g>
		<g>
			<path class="st4" d="M293.11,87.03h-25.33c-2.09,0-3.78,1.69-3.78,3.78V98h-56.75v66.26h89.64V90.81
				C296.89,88.72,295.2,87.03,293.11,87.03z"/>
			<rect x="209.99" y="100.71" class="st20" width="84.16" height="60.75"/>
			<text transform="matrix(1 0 0 1 219.0012 140.3163)"><tspan x="0" y="0" class="st4 st12 st17">404</tspan><tspan x="7.16" y="6.53" class="st4 st14 st18">PAGE NOT FOUND</tspan></text>
			<rect x="266.57" y="96.36" class="st2" width="7.34" height="1.4"/>
			<rect x="276.2" y="90.42" class="st2" width="7.34" height="7.34"/>
			<line class="st19" x1="285.84" y1="97.76" x2="293.18" y2="90.42"/>
			<line class="st19" x1="285.84" y1="90.42" x2="293.18" y2="97.76"/>
		</g>
		<g>
			<path class="st4" d="M196.35,21.93h-25.33c-2.09,0-3.78,1.69-3.78,3.78v7.19h-56.75v66.26h89.64V25.71
				C200.12,23.62,198.43,21.93,196.35,21.93z"/>
			<rect x="113.23" y="35.61" class="st21" width="84.16" height="60.75"/>
			<text transform="matrix(1 0 0 1 122.2356 75.2152)"><tspan x="0" y="0" class="st20 st12 st17">404</tspan><tspan x="7.16" y="6.53" class="st20 st14 st18">PAGE NOT FOUND</tspan></text>
			<rect x="169.8" y="31.26" class="st2" width="7.34" height="1.4"/>
			<rect x="179.44" y="25.32" class="st2" width="7.34" height="7.34"/>
			<line class="st19" x1="189.07" y1="32.66" x2="196.42" y2="25.32"/>
			<line class="st19" x1="189.07" y1="25.32" x2="196.42" y2="32.66"/>
		</g>
		<circle class="st22" cx="396.45" cy="218.45" r="8.77"/>
		<path class="st11" d="M53.54,292.89c11.16,34.16,84.68,68.48,10.32,70.28"/>
		<path class="st11" d="M103.88,214.27c-41.29,17.99-60.29,48.18-50.34,78.62"/>
		<circle class="st22" cx="89.04" cy="222.14" r="8.77"/>
		<polygon class="st23" points="335.4,238.21 336.97,233.89 339.45,233.89 339.45,238.21 		"/>
		<path class="st21" d="M351.86,262.5c0,0-9.26-7.07-10.83-9.42c-1.57-2.36,0-15.53,0-15.53l-6.8-2.09c0,0-2.36,15.53-1.05,20.24
			c1.31,4.71,12.04,14.39,12.04,14.39L351.86,262.5z"/>
		<path class="st23" d="M338.35,235.12c0,0,3.23,1.49,3.84-1.74c0.7-3.23,0.7-3.23,0.7-3.23c-0.14-0.11-0.34-0.25-0.56-0.21
			c-0.39,0.07-0.52,0.64-0.92,1.47c-0.16,0.35-0.42,0.83-0.8,1.39c0.31-1.67,0.62-3.36,0.71-5.06c0.01-0.17,0.01-2.46-0.65-1.57
			c-0.08,0.1-0.11,0.24-0.15,0.36c-0.38,1.44-0.76,2.87-1.14,4.31c0.54-3.47,0.58-5.28,0.12-5.42c-0.37-0.11-0.52,0.39-0.57,0.66
			c-0.31,1.51-0.63,3.01-0.94,4.52c0.02-0.49,0.31-3.85-0.35-3.96c-0.5-0.08-0.44,1.13-0.45,1.41c-0.04,0.91-0.08,1.82-0.12,2.72
			c-0.06-0.64-0.1-1.28-0.2-1.91c-0.05-0.35-0.1-0.73-0.24-1.05c-0.17-0.39-0.42-0.45-0.5,0.08c-0.19,1.25-0.15,2.55,0.04,3.79
			c0.14,0.94,0.51,2.11,0.99,3.45"/>
		<path class="st24" d="M384.93,350.92c-0.07,1-0.42,1.92-1.2,2.71c-1.04,0.79-2.4-0.36-3.32,0.33l0.51,0.62
			c1.06,1.29,0.89,3.18-0.37,4.27l-1.29,1.11l0.56,1.65l4.29-1.47c1.66-0.57,2.83-2.05,2.98-3.8l0.38-4.17L384.93,350.92z"/>
		<path class="st23" d="M383.73,353.63c0.78-0.79,1.13-1.71,1.2-2.71l-4.77-2.34l-2.08,2.55l2.32,2.83
			C381.33,353.27,382.69,354.43,383.73,353.63z"/>
		<path class="st24" d="M343.09,359.48c-0.93,0.38-1.91,0.47-2.96,0.13c-1.17-0.58-0.74-2.31-1.77-2.83l-0.33,0.73
			c-0.69,1.52-5.56,2.79-7.23,2.92l-1.7,0.13l-0.53,1.66l4.32,1.37c1.67,0.53,4.65,0.88,6.28,0.25l3.91-1.51L343.09,359.48z"/>
		<path class="st23" d="M340.13,359.61c1.05,0.35,2.03,0.25,2.96-0.13l-0.01-5.31l-3.21-0.73l-1.5,3.33
			C339.39,357.3,338.96,359.03,340.13,359.61z"/>
		<polygon class="st25" points="355.45,300.91 348.85,326.73 345.26,356.69 337.14,355.57 337.91,327.49 341.4,296.21 
			354.69,296.21 		"/>
		<polygon class="st25" points="349.5,299.43 357.04,331.68 377.08,353.83 384.27,348.66 368.51,326.93 364.49,308 363.53,297.38 		
			"/>
		<polygon class="st25" points="340.76,296.78 340.55,306.22 358.69,307.91 364.26,305.86 363.27,297.44 		"/>
		<polygon class="st23" points="381.67,238.65 382.98,234.33 385.2,234.33 385.2,238.65 		"/>
		<path class="st21" d="M125.41,244.79c2.36,3.79,5.36,11.8,6.61,8.13c2.16,2.86-2.68,18.04-19.69,8.62
			C117.29,258.79,116.11,243.74,125.41,244.79z"/>
		<path class="st23" d="M146.3,363.17c-0.05-0.04-0.1-0.09-0.15-0.14c-1.02-4.29-1.45-10.2-1.45-10.2l-3.06,2.15
			c0,0,0.57,4.73,0.6,8.85C143.57,364.59,145.01,364.16,146.3,363.17z"/>
		<path class="st6" d="M152.73,366.31c-0.06-2.72-4.82-1.83-6.43-3.14c-1.29,0.99-2.73,1.41-4.06,0.66
			c-0.04,0.33-0.1,0.62-0.17,0.87c-0.72,2.26,0.35,2.66,2.39,2.5C147.68,366.95,152.75,367.55,152.73,366.31z"/>
		<path class="st23" d="M107.36,360.38c-0.01-0.07-0.02-0.14-0.02-0.2c2.09-3.89,5.68-8.6,5.68-8.6l-3.72-0.42
			c0,0-2.7,3.92-5.42,7.02C104.38,359.63,105.74,360.26,107.36,360.38z"/>
		<path class="st6" d="M110.09,366.99c1.76-2.08-2.39-4.57-2.73-6.61c-1.62-0.12-2.98-0.75-3.47-2.19c-0.25,0.22-0.48,0.4-0.71,0.53
			c-2.04,1.21-1.5,2.23,0.13,3.46C105.89,364.12,109.29,367.94,110.09,366.99z"/>
		<path class="st10" d="M135.23,286.35c0,0,5.6,19.79-5.2,39.31c-2.8,11.42-20.85,31.92-20.85,31.92l-4.67-2.84
			c0,0,4.61-8.58,6.13-12.03c1.46-3.29,3.49-9.05,6.88-12.72c1.88-2.04,2.74-4.83,2.43-7.58c-1.37-12.07-0.53-27.02,2.14-31.56"/>
		<path class="st10" d="M129.24,292.12l-10.12-2.09c0,0-6.51,6.63-2.72,16.01c3.51,8.7,9.97,15.55,15.87,21.05
			c1.63,1.52,2.26,1.36,2.56,3.57c1.07,8.01,3.58,14.85,4.61,21.73c1.17,7.81,1.17,7.81,1.17,7.81l5.79-0.85l-3.47-33.68
			c-4.19-13.43-13.87-26.39-13.87-26.39"/>
		<path class="st23" d="M127.65,262.72l11.77-7.59c0,0-1.43-2.02-1.98-7.33c-0.7-6.8-2.43-11.51-2.43-11.51l1.44-1.57
			c0,0,6.74,14.12,8.05,20.01c0,4.54-6.02,8.12-15.29,13.22C127.12,266.38,127.65,262.72,127.65,262.72z"/>
		<path class="st25" d="M115.46,265.42c0,0,4.89,17.1,3.66,24.6c6.98,5.06,15.88,2.44,17.62-0.35c-1.4-11.86-2.53-14.13-2.53-14.13
			c1.74-2.09,2.53-6.19-1.13-9.25c-1.86-1.55-2.18-5.67-2.18-5.67S112.41,259.32,115.46,265.42z"/>
		<path class="st23" d="M136.55,237.51c0,0-3.23,1.49-3.84-1.74c-0.7-3.23-0.7-3.23-0.7-3.23c0.14-0.11,0.34-0.25,0.56-0.21
			c0.39,0.07,0.52,0.64,0.92,1.47c0.16,0.35,0.42,0.83,0.8,1.39c-0.31-1.67-0.62-3.36-0.71-5.06c-0.01-0.17-0.01-2.46,0.65-1.57
			c0.08,0.11,0.11,0.24,0.15,0.36c0.38,1.44,0.76,2.87,1.14,4.31c-0.54-3.47-0.58-5.28-0.12-5.42c0.37-0.11,0.52,0.39,0.57,0.66
			c0.31,1.51,0.63,3.01,0.94,4.52c-0.02-0.49-0.31-3.85,0.35-3.96c0.5-0.08,0.44,1.13,0.45,1.41c0.04,0.91,0.08,1.82,0.12,2.72
			c0.06-0.64,0.1-1.28,0.2-1.91c0.05-0.35,0.1-0.73,0.24-1.05c0.17-0.39,0.42-0.45,0.5,0.08c0.19,1.25,0.15,2.55-0.04,3.79
			c-0.14,0.94-0.51,2.11-0.99,3.45"/>
		<polygon class="st22" points="156.4,234.73 167.19,222.52 148.08,170.27 137.29,182.48 		"/>
		<path class="st26" d="M124.47,175.28c-6.7,1.42-12.91,4.04-18.35,7.73l-12.16,8.25l-10.79,12.21l12.16-8.25l0,0
			c5.43-3.69,11.64-6.31,18.35-7.73l23.61-5.01l10.79-12.21L124.47,175.28z"/>
		<path class="st20" d="M113.68,187.49c-6.7,1.42-12.91,4.04-18.35,7.73l-12.16,8.25c-3.03,2.06-4.12,5.98-2.71,9.83l6.38,17.43
			c1.4,3.84,5,6.77,8.99,7.34l16.01,2.28c7.16,1.02,14.25,0.81,20.95-0.61l23.61-5.01l-19.11-52.26L113.68,187.49z"/>
		<g>
			<path class="st6" d="M120.72,235.76c-2.2,0.01-4.41-0.12-6.6-0.36c-2.19-0.26-4.37-0.6-6.55-0.89l-6.55-0.91l-3.27-0.46
				c-0.54-0.08-1.1-0.13-1.64-0.25c-0.55-0.13-1.07-0.34-1.56-0.61c-0.97-0.55-1.81-1.34-2.39-2.29c-0.3-0.47-0.5-1.01-0.68-1.52
				l-0.57-1.55l-2.29-6.2l-2.29-6.2l-1.14-3.11c-0.36-1.05-0.4-2.36,0.37-3.3c0.4-0.47,0.91-0.7,1.34-1.03l1.36-0.93l2.73-1.87
				l5.46-3.73c1.81-1.25,3.65-2.5,5.6-3.55c1.95-1.06,3.97-1.97,6.05-2.74c2.08-0.76,4.21-1.38,6.38-1.86l6.47-1.38l12.94-2.7
				l0.2-0.04l0.07,0.19l15.35,42.38l0.04,0.1l-0.1,0.02l-14.27,2.98c-2.38,0.48-4.75,1.05-7.16,1.35
				C125.59,235.61,123.15,235.76,120.72,235.76z M120.72,235.76c2.43-0.01,4.86-0.17,7.26-0.51c2.41-0.32,4.77-0.9,7.15-1.4
				l14.25-3.07l-0.07,0.12l-15.61-42.28l0.27,0.15l-12.93,2.79l-6.47,1.37c-2.14,0.46-4.26,1.06-6.32,1.8
				c-2.06,0.75-4.07,1.64-6,2.67c-1.94,1.02-3.76,2.24-5.59,3.49l-5.48,3.7l-2.74,1.85l-1.37,0.92c-0.44,0.32-0.96,0.58-1.28,0.96
				c-0.67,0.8-0.66,2-0.33,2.99l1.12,3.11l2.25,6.22l2.25,6.22l0.56,1.55c0.18,0.52,0.37,1.03,0.66,1.49
				c0.56,0.93,1.37,1.71,2.31,2.25c0.47,0.27,0.98,0.48,1.51,0.6c0.54,0.12,1.08,0.17,1.63,0.26l3.27,0.48l6.54,0.95
				c2.18,0.31,4.36,0.65,6.54,0.93C116.32,235.61,118.52,235.75,120.72,235.76z"/>
		</g>
		<path class="st26" d="M155.06,218.77c0.61,1.68,1.42,2.65,1.99,2.5c0.08-0.02,0.17-0.04,0.25-0.06
			c6.23-1.55,30.51-7.38,35.48-8.52c3-0.69,8.05-2.05,7.44-6.1c-0.41-2.74-3.66-3.46-5.95-2.96c-3.47,0.75-33.78,8.24-39.21,9.59
			c-0.13,0.03-0.26,0.13-0.36,0.29C154.15,214.35,154.31,216.71,155.06,218.77z"/>
		<path class="st26" d="M145.2,190.77c0.61,1.68,1.42,2.65,1.99,2.5c0.08-0.02,0.17-0.04,0.25-0.06c6.23-1.55,30.51-7.38,35.48-8.52
			c3-0.69,8.05-2.05,7.44-6.1c-0.41-2.74-3.66-3.46-5.95-2.96c-3.47,0.76-33.78,8.24-39.21,9.59c-0.13,0.03-0.26,0.13-0.36,0.29
			C144.28,186.35,144.45,188.71,145.2,190.77z"/>
		<polygon class="st22" points="328.68,231.9 317.89,219.69 337,167.43 347.79,179.64 		"/>
		<path class="st26" d="M360.61,172.44c6.7,1.42,12.91,4.04,18.35,7.73l12.16,8.25l10.79,12.21l-12.16-8.25h0
			c-5.43-3.69-11.64-6.31-18.35-7.73l-23.61-5.01L337,167.43L360.61,172.44z"/>
		<path class="st20" d="M371.4,184.65c6.7,1.42,12.91,4.04,18.35,7.73l12.16,8.25c3.03,2.06,4.12,5.98,2.71,9.83l-6.38,17.43
			c-1.4,3.84-5,6.77-8.99,7.34l-16.01,2.28c-7.16,1.02-14.25,0.81-20.95-0.61l-23.61-5.01l19.11-52.26L371.4,184.65z"/>
		<g>
			<path class="st6" d="M364.36,232.92c-2.43,0-4.86-0.14-7.27-0.47c-2.41-0.3-4.78-0.87-7.16-1.35l-14.27-2.98l-0.1-0.02l0.04-0.1
				l15.35-42.38l0.07-0.19l0.2,0.04l12.94,2.7l6.47,1.38c2.16,0.47,4.3,1.1,6.37,1.86c2.08,0.77,4.1,1.68,6.05,2.74
				c1.95,1.05,3.79,2.3,5.6,3.55l5.46,3.73l2.73,1.87l1.36,0.93c0.44,0.34,0.93,0.55,1.34,1.03c0.77,0.95,0.72,2.25,0.37,3.3
				l-1.14,3.11l-2.29,6.2l-2.29,6.2l-0.57,1.55c-0.18,0.51-0.38,1.04-0.68,1.52c-0.59,0.95-1.42,1.75-2.39,2.29
				c-0.49,0.27-1.01,0.48-1.56,0.61c-0.55,0.12-1.09,0.17-1.64,0.25l-3.27,0.46l-6.55,0.91c-2.18,0.29-4.36,0.63-6.55,0.89
				C368.76,232.8,366.56,232.93,364.36,232.92z M364.36,232.92c2.2-0.01,4.41-0.15,6.59-0.41c2.19-0.28,4.36-0.62,6.54-0.93
				l6.54-0.95l3.27-0.48c0.54-0.09,1.1-0.14,1.63-0.26c0.53-0.13,1.04-0.33,1.51-0.6c0.94-0.54,1.75-1.32,2.32-2.24
				c0.29-0.46,0.48-0.97,0.66-1.49l0.56-1.55l2.25-6.22l2.25-6.22l1.12-3.11c0.33-0.99,0.34-2.19-0.33-2.99
				c-0.31-0.37-0.85-0.64-1.28-0.96l-1.37-0.92l-2.74-1.85l-5.48-3.7c-1.82-1.25-3.64-2.46-5.59-3.49c-1.93-1.03-3.94-1.92-6-2.67
				c-2.07-0.74-4.17-1.34-6.32-1.8l-6.46-1.37l-12.93-2.79l0.27-0.15l-15.61,42.28l-0.07-0.12l14.25,3.07
				c2.38,0.5,4.74,1.08,7.15,1.4C359.5,232.75,361.93,232.91,364.36,232.92z"/>
		</g>
		<path class="st23" d="M121.35,262.46c0,0-7.46-10.34-4.06-14.52c3.4-4.19,7.51-1.7,10.3,3.54c2.79,5.23-1.67,6.67-1.67,6.67
			l1.73,4.58C127.65,262.72,124.75,264.94,121.35,262.46z"/>
		<path class="st21" d="M118.34,251.86c0.49,2.75,3.53,12.3-6.02,9.68c2.09-1.44,2.09-3.01,0.65-7.85
			c-1.44-4.84,3.66-12.82,12.43-8.9C125.54,245.84,128.51,250.03,118.34,251.86z"/>
		<path class="st23" d="M112.76,237.98c0,0,2.81,1.3,3.34-1.52c0.61-2.81,0.61-2.81,0.61-2.81c-0.12-0.1-0.3-0.21-0.48-0.18
			c-0.34,0.06-0.45,0.56-0.8,1.28c-0.14,0.3-0.36,0.73-0.69,1.21c0.27-1.45,0.54-2.93,0.62-4.41c0.01-0.14,0.01-2.15-0.57-1.37
			c-0.07,0.09-0.1,0.2-0.13,0.31c-0.33,1.25-0.66,2.5-0.99,3.75c0.47-3.02,0.51-4.59,0.1-4.72c-0.32-0.1-0.45,0.34-0.5,0.57
			c-0.27,1.31-0.55,2.62-0.82,3.93c0.02-0.42,0.27-3.35-0.3-3.45c-0.43-0.07-0.38,0.99-0.39,1.23c-0.03,0.79-0.07,1.58-0.1,2.37
			c-0.05-0.56-0.09-1.11-0.17-1.66c-0.05-0.3-0.09-0.64-0.21-0.92c-0.15-0.34-0.37-0.39-0.44,0.07c-0.17,1.09-0.13,2.22,0.03,3.3
			c0.12,0.82,0.45,1.83,0.86,3"/>
		<path class="st23" d="M384.05,236.25c0,0-3.23,1.49-3.84-1.74c-0.7-3.23-0.7-3.23-0.7-3.23c0.14-0.11,0.34-0.25,0.56-0.21
			c0.39,0.07,0.52,0.64,0.92,1.47c0.16,0.35,0.42,0.83,0.8,1.39c-0.31-1.67-0.62-3.36-0.71-5.06c-0.01-0.17-0.01-2.46,0.65-1.57
			c0.08,0.1,0.11,0.24,0.15,0.36c0.38,1.44,0.76,2.87,1.14,4.31c-0.54-3.47-0.58-5.28-0.12-5.42c0.37-0.11,0.52,0.39,0.57,0.66
			c0.31,1.51,0.63,3.01,0.94,4.52c-0.02-0.49-0.31-3.85,0.35-3.96c0.5-0.08,0.44,1.13,0.45,1.41c0.04,0.91,0.08,1.82,0.12,2.72
			c0.06-0.64,0.1-1.28,0.2-1.91c0.05-0.35,0.1-0.73,0.24-1.05c0.17-0.39,0.42-0.45,0.5,0.08c0.19,1.25,0.15,2.55-0.04,3.79
			c-0.14,0.94-0.51,2.11-0.99,3.45"/>
		<path class="st23" d="M118.44,261.59l-11.7-8.38c0,0,1.97-1.36,3.02-6.6c1.05-5.23,5-9.1,5-9.1l-2.1-1.74
			c0,0-10.64,11.38-11.95,17.27c0,4.54,3.88,7.47,15.42,14.92C120.79,267.95,118.44,261.59,118.44,261.59z"/>
		<path class="st21" d="M346.78,261.45l17.34-1.14c0,0,0.32,8.47,0,13.97c-0.32,5.5-3.84,18.58,0.14,23.55
			c-7.27,5.5-23.24,5.76-24.81,0C341.81,281.6,340.24,264.33,346.78,261.45z"/>
		<path class="st21" d="M362.48,260.93l12.63-4.02l4.86-18.91h6.41c0,0-0.81,19.7-3.16,22.31c-2.36,2.62-19.11,13.97-19.11,13.97
			S359.08,264.33,362.48,260.93z"/>
		<path class="st23" d="M350.18,262.5l1.67-4.71c-3.37-0.52-4.74-4.97,0-10.6c4.74-5.63,11.67-1.96,11.41,1.31
			c-0.26,3.27-4.71,9.42-4.71,9.42l-0.01,2.76C358.55,260.68,355.55,265.12,350.18,262.5z"/>
		<path class="st27" d="M330.93,210.83c-0.5,3.01-2.34,5.72-4.12,6.06c-1.78,0.34-2.81-1.83-2.31-4.84c0.5-3.01,2.34-5.72,4.12-6.06
			C330.39,205.65,331.42,207.82,330.93,210.83z"/>
		<path class="st27" d="M340.71,187.46c-0.5,3.01-2.34,5.72-4.12,6.06c-1.78,0.34-2.81-1.83-2.31-4.84c0.5-3.01,2.34-5.72,4.12-6.06
			C340.18,182.29,341.21,184.45,340.71,187.46z"/>
		<path class="st10" d="M359.43,256.64c-0.39-1.2,2.12-4,0.9-4.7c-1.22-0.7-2.53,1.31-2.53,1.31l-1.05-0.48c0,0,1.48-1.61,1.13-3.18
			c-0.35-1.57,0.79-2.44,0.79-2.44s-8.38,0.09-5.24-4.7c3.14-4.8,11.08,1.65,10.47,5.14C368.44,249.59,359.8,258.92,359.43,256.64z"
			/>
		<g>
			<path class="st6" d="M142.71,175.94c0,0-3.61,0.94-9.02,2.36c-2.71,0.68-5.87,1.48-9.26,2.34c-1.7,0.41-3.45,0.84-5.24,1.28
				c-1.77,0.43-3.56,0.95-5.31,1.54c-3.52,1.18-6.91,2.72-9.94,4.44c-1.51,0.86-2.93,1.76-4.27,2.64c-1.35,0.87-2.62,1.69-3.79,2.45
				c-4.72,3.01-7.86,5.01-7.86,5.01s3.08-2.11,7.69-5.27c1.16-0.78,2.41-1.63,3.74-2.53c1.32-0.89,2.73-1.86,4.25-2.73
				c3.04-1.76,6.45-3.33,10-4.55c1.77-0.61,3.58-1.11,5.37-1.54c1.78-0.42,3.54-0.84,5.24-1.24c3.4-0.79,6.58-1.54,9.3-2.17
				C139.07,176.76,142.71,175.94,142.71,175.94z"/>
		</g>
		<g>
			<path class="st6" d="M343.45,173.11c0,0,3.64,0.82,9.1,2.04c2.72,0.64,5.9,1.38,9.3,2.17c1.7,0.4,3.46,0.82,5.24,1.24
				c1.8,0.43,3.6,0.93,5.37,1.54c3.54,1.22,6.96,2.79,10,4.55c1.53,0.87,2.93,1.83,4.25,2.73c1.33,0.9,2.58,1.75,3.74,2.53
				c4.61,3.16,7.69,5.27,7.69,5.27s-3.14-2-7.86-5.01c-1.17-0.76-2.45-1.58-3.79-2.45c-1.34-0.88-2.76-1.78-4.27-2.64
				c-3.02-1.73-6.42-3.26-9.94-4.44c-1.76-0.59-3.54-1.12-5.31-1.54c-1.78-0.44-3.54-0.86-5.24-1.28c-3.39-0.85-6.55-1.65-9.26-2.34
				C347.06,174.05,343.45,173.11,343.45,173.11z"/>
		</g>
		<path class="st20" d="M151,342.12c0,0-15.32-24.58,6.88-11.23c-1.33-68.92,20.41-22.65,14.77-3
			c25.25-65.09,28.04-13.27,11.49,3.52c31.8-27.69,8.2,10.7,8.2,10.7H151"/>
		<g>
			<path class="st6" d="M121.42,258.37c0,0,0.39,0.12,0.95,0.19c0.28,0.05,0.61,0.06,0.96,0.06c0.35,0,0.72-0.03,1.08-0.1
				c0.37-0.06,0.72-0.17,1.05-0.28c0.32-0.13,0.64-0.24,0.89-0.39c0.26-0.13,0.47-0.25,0.62-0.34c0.15-0.08,0.24-0.13,0.24-0.13
				s-0.06,0.08-0.17,0.21c-0.12,0.12-0.27,0.34-0.51,0.52c-0.23,0.2-0.52,0.4-0.86,0.58c-0.35,0.17-0.74,0.31-1.15,0.38
				c-0.41,0.07-0.83,0.09-1.21,0.04c-0.38-0.04-0.73-0.15-1.01-0.25C121.72,258.65,121.42,258.37,121.42,258.37z"/>
		</g>
		<g>
			<path class="st6" d="M115.12,251.34c0,0,0.73-0.09,1.81-0.28c0.54-0.08,1.16-0.23,1.82-0.38c0.65-0.17,1.35-0.35,2.02-0.62
				c0.68-0.23,1.31-0.56,1.86-0.92c0.29-0.17,0.51-0.39,0.76-0.57c0.22-0.2,0.39-0.43,0.58-0.63c0.15-0.22,0.26-0.43,0.38-0.62
				c0.14-0.18,0.15-0.38,0.22-0.52c0.11-0.3,0.17-0.48,0.17-0.48s-0.02,0.18-0.07,0.5c-0.04,0.16-0.03,0.37-0.13,0.58
				c-0.09,0.21-0.17,0.46-0.31,0.71c-0.17,0.23-0.33,0.5-0.55,0.74c-0.24,0.22-0.46,0.5-0.76,0.69c-0.29,0.2-0.59,0.43-0.93,0.58
				c-0.33,0.18-0.67,0.33-1.02,0.46c-0.7,0.27-1.43,0.44-2.11,0.57c-0.69,0.12-1.33,0.17-1.89,0.2
				C115.86,251.43,115.12,251.34,115.12,251.34z"/>
		</g>
		<g>
			<path class="st6" d="M123.05,245.01c0,0-0.02,0.57-0.35,1.35c-0.16,0.39-0.39,0.83-0.7,1.27c-0.18,0.2-0.33,0.44-0.55,0.63
				c-0.2,0.2-0.42,0.39-0.66,0.56c-0.23,0.18-0.49,0.3-0.74,0.44c-0.25,0.14-0.53,0.2-0.77,0.3c-0.25,0.09-0.52,0.11-0.76,0.16
				c-0.24,0.06-0.47,0.04-0.68,0.06c-0.42,0.04-0.77-0.04-1.01-0.06c-0.24-0.04-0.38-0.06-0.38-0.06s0.14-0.02,0.38-0.05
				c0.24-0.03,0.58-0.05,0.98-0.14c0.2-0.05,0.42-0.06,0.63-0.14c0.22-0.08,0.45-0.14,0.68-0.23c0.45-0.19,0.93-0.42,1.35-0.74
				c0.22-0.14,0.42-0.31,0.61-0.49c0.2-0.16,0.36-0.37,0.53-0.54c0.15-0.2,0.32-0.37,0.45-0.56c0.14-0.18,0.26-0.37,0.36-0.54
				C122.85,245.53,123.05,245.01,123.05,245.01z"/>
		</g>
		<g>
			<path class="st6" d="M119.75,246.05c0,0-0.4,0.11-0.96,0.33c-0.28,0.1-0.6,0.25-0.93,0.41c-0.33,0.17-0.67,0.35-0.98,0.58
				c-0.32,0.21-0.61,0.46-0.87,0.72c-0.25,0.26-0.49,0.51-0.65,0.76c-0.35,0.48-0.53,0.86-0.55,0.85c0,0,0.01-0.1,0.05-0.28
				c0.04-0.18,0.08-0.44,0.22-0.72c0.06-0.15,0.13-0.3,0.23-0.46c0.09-0.16,0.18-0.33,0.32-0.48c0.24-0.32,0.57-0.61,0.92-0.85
				c0.35-0.24,0.73-0.43,1.11-0.57c0.37-0.14,0.74-0.2,1.04-0.26C119.34,245.98,119.75,246.05,119.75,246.05z"/>
		</g>
		<g>
			<path class="st6" d="M116.71,254.08c0,0,0.2,0.19,0.41,0.54c0.2,0.35,0.43,0.85,0.51,1.39c0.04,0.27,0.07,0.54,0.05,0.8
				c0,0.26-0.07,0.5-0.11,0.69c-0.05,0.2-0.13,0.36-0.18,0.46c-0.05,0.11-0.09,0.16-0.09,0.16s-0.01-0.07-0.01-0.19
				c0.01-0.11-0.02-0.28-0.03-0.47c-0.03-0.38-0.1-0.87-0.18-1.37c-0.08-0.49-0.18-0.99-0.25-1.37
				C116.75,254.35,116.71,254.08,116.71,254.08z"/>
		</g>
		<g>
			<path class="st6" d="M123.05,276.7c0,0,0.54,0,1.34,0.03c0.4,0.02,0.86,0.02,1.35,0.02c0.49,0,1.01-0.01,1.52-0.09
				c0.26-0.02,0.5-0.08,0.74-0.13c0.23-0.08,0.47-0.13,0.67-0.24c0.22-0.09,0.39-0.22,0.57-0.33c0.15-0.15,0.31-0.27,0.4-0.44
				c0.11-0.15,0.19-0.3,0.25-0.45c0.08-0.14,0.12-0.27,0.14-0.39c0.06-0.23,0.1-0.36,0.1-0.36s0.01,0.13,0.01,0.37
				c0.01,0.12,0,0.27-0.04,0.43c-0.02,0.17-0.07,0.36-0.18,0.55c-0.08,0.2-0.24,0.38-0.39,0.58c-0.18,0.16-0.38,0.36-0.62,0.47
				c-0.47,0.27-1.03,0.42-1.57,0.49c-0.55,0.07-1.1,0.07-1.61,0.02c-0.51-0.03-0.97-0.13-1.37-0.2c-0.4-0.07-0.72-0.18-0.95-0.24
				C123.18,276.74,123.05,276.7,123.05,276.7z"/>
		</g>
		<g>
			<path class="st6" d="M129.47,299.82c0,0,0.47,0.57,1.11,1.45c0.64,0.88,1.48,2.08,2.26,3.31c0.78,1.23,1.52,2.49,2.05,3.44
				c0.53,0.96,0.84,1.62,0.84,1.62s-0.47-0.56-1.11-1.45c-0.64-0.88-1.48-2.08-2.26-3.31c-0.78-1.23-1.52-2.49-2.05-3.44
				C129.78,300.48,129.47,299.82,129.47,299.82z"/>
		</g>
		<g>
			<path class="st6" d="M119.31,312.59c0,0,0.76,0.75,1.86,1.9c0.54,0.58,1.19,1.25,1.86,1.99c0.67,0.74,1.39,1.52,2.1,2.31
				c1.4,1.59,2.81,3.18,3.86,4.38c0.53,0.59,0.96,1.1,1.29,1.43c0.32,0.34,0.52,0.51,0.52,0.51s-0.06-0.04-0.16-0.11
				c-0.1-0.07-0.27-0.17-0.44-0.32c-0.36-0.3-0.87-0.73-1.45-1.29c-0.57-0.56-1.25-1.2-1.93-1.93c-0.68-0.73-1.4-1.51-2.13-2.29
				c-0.7-0.8-1.39-1.61-2.05-2.36c-0.65-0.75-1.23-1.49-1.73-2.1C119.93,313.46,119.31,312.59,119.31,312.59z"/>
		</g>
		<g>
			<path class="st6" d="M164.43,297.35c0,0-0.04,2.68-0.04,6.7c-0.02,2.01,0.01,4.36,0.03,6.87c0.02,2.51,0.08,5.19,0.18,7.87
				c0.06,1.34,0.11,2.68,0.17,3.99c0.09,1.31,0.14,2.61,0.26,3.86c0.13,1.25,0.18,2.46,0.34,3.6c0.14,1.14,0.24,2.23,0.43,3.21
				c0.18,0.98,0.28,1.9,0.5,2.69c0.2,0.79,0.32,1.5,0.52,2.04c0.4,1.1,0.63,1.73,0.63,1.73s-0.26-0.62-0.72-1.7
				c-0.24-0.54-0.38-1.24-0.63-2.02c-0.26-0.78-0.41-1.69-0.62-2.68c-0.22-0.99-0.35-2.07-0.53-3.21c-0.19-1.14-0.29-2.36-0.42-3.61
				c-0.13-1.25-0.2-2.55-0.3-3.87c-0.07-1.32-0.14-2.66-0.21-4c-0.07-2.68-0.11-5.37-0.11-7.88c0-2.52,0.08-4.86,0.14-6.88
				c0.06-2.01,0.18-3.69,0.24-4.86C164.39,298.02,164.43,297.35,164.43,297.35z"/>
		</g>
		<g>
			<path class="st6" d="M190.79,299.65c0,0-0.03,0.16-0.09,0.45c-0.07,0.29-0.18,0.72-0.32,1.27c-0.29,1.09-0.69,2.64-1.26,4.49
				c-0.56,1.85-1.22,4-2,6.28c-0.78,2.28-1.65,4.71-2.56,7.12c-0.48,1.19-0.95,2.39-1.44,3.56c-0.51,1.16-0.96,2.32-1.48,3.41
				c-0.5,1.1-0.98,2.16-1.51,3.14c-0.51,0.99-0.97,1.92-1.48,2.75c-0.48,0.84-0.92,1.61-1.38,2.25c-0.46,0.64-0.8,1.24-1.18,1.65
				c-0.73,0.86-1.14,1.35-1.14,1.35s0.39-0.51,1.07-1.41c0.36-0.43,0.67-1.05,1.09-1.71c0.43-0.65,0.82-1.45,1.28-2.29
				c0.47-0.84,0.91-1.78,1.38-2.78c0.49-0.99,0.93-2.06,1.43-3.16c0.5-1.09,0.95-2.25,1.44-3.42c0.48-1.17,0.93-2.37,1.4-3.56
				c0.93-2.39,1.82-4.8,2.62-7.07c0.8-2.27,1.56-4.39,2.16-6.22c0.61-1.83,1.13-3.35,1.47-4.42c0.17-0.54,0.3-0.96,0.39-1.25
				C190.75,299.8,190.79,299.65,190.79,299.65z"/>
		</g>
		<g>
			<path class="st6" d="M197.08,326.01c0,0-0.38,1.05-1.19,2.5c-0.41,0.72-0.91,1.56-1.51,2.41c-0.61,0.85-1.3,1.73-2.04,2.56
				c-0.76,0.81-1.57,1.59-2.38,2.25c-0.4,0.34-0.8,0.65-1.2,0.91c-0.4,0.27-0.76,0.54-1.13,0.73c-0.36,0.21-0.7,0.39-1,0.55
				c-0.31,0.14-0.58,0.26-0.8,0.35c-0.45,0.19-0.7,0.29-0.7,0.29s0.24-0.14,0.65-0.39c0.21-0.12,0.46-0.27,0.75-0.44
				c0.27-0.19,0.58-0.41,0.93-0.64c0.35-0.22,0.69-0.51,1.06-0.8c0.38-0.28,0.74-0.62,1.13-0.95c0.78-0.66,1.55-1.45,2.28-2.26
				c0.75-0.8,1.45-1.65,2.07-2.47c0.61-0.82,1.19-1.6,1.64-2.29C196.54,326.97,197.08,326.01,197.08,326.01z"/>
		</g>
		<g>
			<path class="st6" d="M151.74,330.77c0,0,0.17,0.03,0.44,0.15c0.27,0.12,0.66,0.3,1.08,0.59c0.42,0.29,0.9,0.64,1.37,1.08
				c0.47,0.43,0.93,0.92,1.37,1.44c0.88,1.03,1.61,2.17,2.11,3.05c0.26,0.43,0.43,0.82,0.57,1.08c0.13,0.27,0.2,0.42,0.2,0.42
				s-0.43-0.52-1.03-1.32c-0.3-0.4-0.66-0.86-1.05-1.35c-0.38-0.49-0.8-1.01-1.23-1.51c-0.42-0.51-0.86-1-1.29-1.45
				c-0.43-0.45-0.83-0.86-1.21-1.18C152.33,331.11,151.74,330.77,151.74,330.77z"/>
		</g>
		<g>
			<path class="st6" d="M356.03,256.14c0,0,0.03,0.34-0.2,0.79c-0.13,0.21-0.29,0.47-0.55,0.67c-0.25,0.2-0.56,0.36-0.88,0.46
				c-0.65,0.19-1.32,0.13-1.79,0.01c-0.24-0.04-0.42-0.14-0.55-0.18c-0.13-0.05-0.2-0.09-0.2-0.09s0.33-0.03,0.78-0.05
				c0.23-0.01,0.49-0.03,0.77-0.07c0.27-0.03,0.56-0.08,0.83-0.17c0.28-0.07,0.53-0.19,0.76-0.32c0.23-0.13,0.43-0.29,0.58-0.45
				C355.88,256.43,356.03,256.14,356.03,256.14z"/>
		</g>
		<g>
			<path class="st6" d="M354.94,243.5c0,0,0.28-0.14,0.74-0.21c0.23-0.02,0.5-0.06,0.79-0.04c0.29,0.01,0.6,0.07,0.9,0.15
				c0.3,0.1,0.59,0.23,0.84,0.41c0.12,0.09,0.24,0.17,0.33,0.28c0.09,0.1,0.19,0.19,0.25,0.29c0.29,0.38,0.32,0.71,0.33,0.7
				c0,0-0.06-0.05-0.16-0.14c-0.08-0.1-0.24-0.21-0.4-0.34c-0.16-0.13-0.38-0.25-0.61-0.36c-0.23-0.11-0.49-0.21-0.75-0.29
				c-0.53-0.16-1.09-0.26-1.52-0.33C355.25,243.55,354.94,243.5,354.94,243.5z"/>
		</g>
		<g>
			<path class="st6" d="M359.12,243.45c0,0,0.27-0.07,0.68-0.04c0.2,0.03,0.45,0.06,0.69,0.16c0.25,0.09,0.49,0.23,0.72,0.42
				c0.21,0.19,0.41,0.42,0.52,0.67c0.12,0.24,0.17,0.5,0.18,0.7c0.03,0.21-0.02,0.38-0.03,0.5c-0.02,0.12-0.04,0.18-0.04,0.18
				c-0.02,0-0.08-0.27-0.23-0.6c-0.06-0.17-0.18-0.35-0.3-0.53c-0.12-0.18-0.28-0.34-0.46-0.49c-0.35-0.3-0.78-0.53-1.12-0.7
				C359.37,243.56,359.12,243.45,359.12,243.45z"/>
		</g>
		<g>
			<path class="st6" d="M364.11,274.28c0,0-0.04,0.03-0.13,0.08c-0.08,0.05-0.22,0.12-0.41,0.14c-0.39,0.05-0.95-0.24-1.32-0.77
				c-0.79-1.05-1.19-2.77-1.2-4.46c0-0.85,0.08-1.69,0.23-2.46c0.15-0.78,0.37-1.48,0.58-2.07c0.21-0.59,0.45-1.06,0.61-1.39
				c0.17-0.32,0.27-0.5,0.27-0.5s-0.06,0.2-0.17,0.54c-0.12,0.34-0.25,0.84-0.4,1.44c-0.3,1.19-0.56,2.81-0.55,4.43
				c0.01,1.61,0.28,3.25,0.89,4.28c0.3,0.51,0.7,0.84,1.06,0.84C363.92,274.4,364.12,274.26,364.11,274.28z"/>
		</g>
		<g>
			<path class="st6" d="M375.11,256.91c0,0,0.01,0.28-0.05,0.69c-0.05,0.41-0.15,0.94-0.32,1.45c-0.15,0.52-0.37,1.02-0.55,1.38
				c-0.18,0.37-0.35,0.6-0.35,0.6s-0.01-0.28,0.05-0.69c0.05-0.41,0.16-0.94,0.32-1.45c0.16-0.52,0.37-1.01,0.55-1.38
				C374.94,257.14,375.11,256.91,375.11,256.91z"/>
		</g>
		<g>
			<path class="st6" d="M352.69,313.07c0,0-0.36,0.03-0.9-0.03c-0.53-0.06-1.24-0.19-1.91-0.43c-0.68-0.23-1.31-0.57-1.76-0.88
				c-0.45-0.31-0.69-0.58-0.69-0.58s0.09,0.02,0.24,0.08c0.14,0.06,0.36,0.12,0.6,0.22c0.49,0.18,1.15,0.4,1.8,0.63
				c0.65,0.23,1.3,0.47,1.8,0.65C352.36,312.93,352.69,313.07,352.69,313.07z"/>
		</g>
		<g>
			<path class="st6" d="M382.63,331.89c0,0,0.66,0.12,1.62,0.36c0.96,0.24,2.23,0.59,3.49,1c1.26,0.4,2.49,0.87,3.41,1.24
				c0.92,0.37,1.52,0.66,1.52,0.66s-0.66-0.12-1.62-0.36c-0.96-0.24-2.23-0.59-3.49-1c-1.26-0.4-2.49-0.87-3.41-1.24
				C383.23,332.18,382.63,331.89,382.63,331.89z"/>
		</g>
		<g>
			<path class="st6" d="M391.58,329.35c0,0,0.52,0.07,1.28,0.25c0.76,0.17,1.76,0.43,2.74,0.75c0.98,0.31,1.95,0.69,2.66,0.99
				c0.72,0.3,1.18,0.55,1.18,0.55s-0.52-0.07-1.28-0.24c-0.76-0.17-1.76-0.43-2.74-0.76c-0.98-0.31-1.95-0.69-2.66-0.99
				C392.04,329.6,391.58,329.35,391.58,329.35z"/>
		</g>
		<g>
			<path class="st6" d="M73.53,325.1c0,0,0.48,0.4,1.16,1.06c0.67,0.65,1.55,1.54,2.38,2.48c0.83,0.93,1.62,1.9,2.19,2.64
				c0.57,0.74,0.92,1.27,0.92,1.27s-0.48-0.4-1.16-1.06c-0.67-0.65-1.55-1.54-2.38-2.48c-0.83-0.93-1.62-1.9-2.19-2.64
				C73.88,325.63,73.53,325.1,73.53,325.1z"/>
		</g>
		<g>
			<path class="st6" d="M80.18,324.08c0,0,0.47,0.38,1.14,1.01c0.66,0.62,1.52,1.47,2.34,2.37c0.82,0.89,1.59,1.82,2.15,2.54
				c0.56,0.71,0.9,1.22,0.9,1.22s-0.48-0.38-1.14-1.01c-0.66-0.62-1.52-1.47-2.34-2.37c-0.82-0.89-1.59-1.82-2.15-2.54
				C80.53,324.59,80.18,324.08,80.18,324.08z"/>
		</g>
		<path class="st4" d="M164.22,131.08h53.25c0,0-0.06-13.4-13.58-8.81s-9.9-10.76-27.05-9.6
			C161.16,113.74,153.18,124.79,164.22,131.08z"/>
		<path class="st4" d="M246.8,53.5h59.37c0,0-4.56-9.78-10.75-4.89c-6.19,4.89-6.42-16.53-18.93-7.67
			C263.97,49.81,242.51,16.52,246.8,53.5z"/>
	</g>
</g>
<g id="DESIGNED_BY_FREEPIK">
</g>
</svg>
