<svg id="Capa_1" enable-background="new 0 0 512 512" height="512" viewBox="0 0 512 512" width="512" xmlns="http://www.w3.org/2000/svg"><g><path d="m496.5 265.067h-50.767v-23.468c1.314-.709 2.552-1.611 3.66-2.72l29.703-29.702c4.53-4.53 5.873-11.282 3.421-17.2-2.452-5.919-8.175-9.744-14.582-9.744h-59.404c-6.407 0-12.13 3.825-14.582 9.744-2.452 5.918-1.109 12.67 3.421 17.2l29.702 29.702c1.109 1.109 2.346 2.011 3.661 2.72v23.467h-84.4v-23.468c1.314-.709 2.551-1.611 3.66-2.72l29.702-29.702c4.53-4.53 5.874-11.282 3.421-17.201-2.451-5.919-8.175-9.743-14.582-9.743h-59.405c-6.406 0-12.13 3.824-14.582 9.743s-1.109 12.67 3.421 17.201l29.702 29.702c1.109 1.109 2.346 2.011 3.661 2.72v23.467h-84.4v-23.465c1.314-.709 2.552-1.611 3.661-2.72l29.702-29.702c4.53-4.53 5.873-11.282 3.421-17.201s-8.175-9.743-14.582-9.743h-59.405c-6.406 0-12.13 3.824-14.582 9.743s-1.109 12.67 3.421 17.201l29.702 29.702c1.109 1.109 2.346 2.01 3.66 2.72v23.468h-143.162c-4.142 0-7.5 3.358-7.5 7.5s3.358 7.5 7.5 7.5h407.733c.276 0 .5.224.5.5v17.132c0 .276-.224.5-.5.5h-8.567-463.866-8.567c-.276 0-.5-.224-.5-.5v-17.133c0-.276.224-.5.5-.5h43.75c4.142 0 7.5-3.358 7.5-7.5s-3.358-7.5-7.5-7.5h-43.75c-8.547 0-15.5 6.953-15.5 15.5v17.133c0 8.547 6.953 15.5 15.5 15.5h1.067v183.3c0 8.547 6.953 15.5 15.5 15.5h26.701c4.142 0 7.5-3.358 7.5-7.5s-3.358-7.5-7.5-7.5h-26.701c-.276 0-.5-.224-.5-.5v-150.167h448.866v150.167c0 .276-.224.5-.5.5h-67.333v-67.833h17.633c8.547 0 15.5-6.953 15.5-15.5v-25.698c0-12.958-10.542-23.5-23.5-23.5h-67.4c-12.958 0-23.5 10.542-23.5 23.5v25.698c0 8.547 6.953 15.5 15.5 15.5h17.633v67.833h-84.4v-67.833h17.634c8.547 0 15.5-6.953 15.5-15.5v-25.698c0-12.958-10.542-23.5-23.5-23.5h-67.4c-12.958 0-23.5 10.542-23.5 23.5v25.698c0 8.547 6.953 15.5 15.5 15.5h17.633v67.833h-84.4v-67.833h17.633c8.547 0 15.5-6.953 15.5-15.5v-25.698c0-12.958-10.542-23.5-23.5-23.5h-67.4c-12.958 0-23.5 10.542-23.5 23.5v25.698c0 8.547 6.953 15.5 15.5 15.5h17.634v67.833h-10.633c-4.142 0-7.5 3.358-7.5 7.5s3.358 7.5 7.5 7.5h391.166c8.547 0 15.5-6.953 15.5-15.5v-183.3h1.067c8.547 0 15.5-6.953 15.5-15.5v-17.133c0-8.547-6.953-15.5-15.5-15.5zm-88.523-66.496c-.138-.139-.37-.37-.17-.854.201-.484.528-.484.724-.484h59.404c.196 0 .524 0 .724.484.2.483-.032.715-.17.854l-29.703 29.702c-.306.306-.803.305-1.108 0zm-99.4 0c-.138-.139-.37-.37-.17-.854.201-.483.528-.483.724-.483h59.405c.196 0 .523 0 .724.483s-.032.715-.17.854l-29.702 29.702c-.152.153-.353.229-.553.229h-.001c-.2 0-.401-.076-.554-.229zm-99.4 0c-.138-.139-.37-.37-.17-.854.201-.483.528-.483.724-.483h59.405c.196 0 .523 0 .724.483.2.484-.032.715-.17.854l-29.702 29.702c-.306.306-.802.305-1.108 0zm137.156 215.096v-25.698c0-4.687 3.813-8.5 8.5-8.5h67.4c4.687 0 8.5 3.813 8.5 8.5v25.698c0 .276-.224.5-.5.5h-83.4c-.275 0-.5-.225-.5-.5zm51.267 15.5v18.133h-18.133v-18.133zm-183.8-15.5v-25.698c0-4.687 3.813-8.5 8.5-8.5h67.4c4.687 0 8.5 3.813 8.5 8.5v25.698c0 .276-.224.5-.5.5h-83.4c-.276 0-.5-.225-.5-.5zm51.267 15.5v18.133h-18.134v-18.133zm-183.8-15.5v-25.698c0-4.687 3.813-8.5 8.5-8.5h67.4c4.687 0 8.5 3.813 8.5 8.5v25.698c0 .276-.224.5-.5.5h-83.4c-.276 0-.5-.225-.5-.5zm51.266 15.5v18.133h-18.133v-18.133zm-18.133 67.833v-34.7h18.133v34.7zm132.533 0v-34.7h18.134v34.7zm132.534 0v-34.7h18.133v34.7zm100.966-165.667h-448.866v-18.133h448.866z"/><path d="m65.2 130.967h116.533c8.547 0 15.5-6.953 15.5-15.5v-17.133c0-8.547-6.953-15.5-15.5-15.5h-1.772c-3.074-16.401-16.027-29.354-32.428-32.428v-34.906c0-8.547-6.953-15.5-15.5-15.5h-17.133c-8.547 0-15.5 6.953-15.5 15.5v34.906c-16.401 3.074-29.354 16.027-32.428 32.428h-1.772c-8.547 0-15.5 6.953-15.5 15.5v17.133c0 8.547 6.953 15.5 15.5 15.5zm49.2-115.467c0-.276.224-.5.5-.5h17.133c.276 0 .5.224.5.5v34.2h-18.133zm-7.5 49.2h33.133c11.526 0 21.296 7.647 24.511 18.133h-82.156c3.216-10.486 12.986-18.133 24.512-18.133zm-42.2 33.634c0-.276.224-.5.5-.5h116.533c.276 0 .5.224.5.5v17.133c0 .276-.224.5-.5.5h-116.533c-.276 0-.5-.224-.5-.5z"/><path d="m330.267 130.967h116.533c8.547 0 15.5-6.953 15.5-15.5v-17.133c0-8.547-6.953-15.5-15.5-15.5h-1.772c-3.074-16.401-16.027-29.354-32.428-32.428v-34.906c0-8.547-6.953-15.5-15.5-15.5h-17.133c-8.547 0-15.5 6.953-15.5 15.5v34.906c-16.401 3.074-29.353 16.027-32.428 32.428h-1.772c-8.547 0-15.5 6.953-15.5 15.5v17.133c0 8.547 6.953 15.5 15.5 15.5zm49.2-115.467c0-.276.224-.5.5-.5h17.133c.276 0 .5.224.5.5v34.2h-18.133zm-7.5 49.2h33.133c11.526 0 21.296 7.647 24.511 18.133h-82.156c3.215-10.486 12.986-18.133 24.512-18.133zm-42.2 33.634c0-.276.224-.5.5-.5h116.533c.276 0 .5.224.5.5v17.133c0 .276-.224.5-.5.5h-116.533c-.276 0-.5-.224-.5-.5z"/></g></svg>